<svg width="295" height="64" viewBox="0 0 295 64" fill="none" xmlns="http://www.w3.org/2000/svg">
<rect width="295" height="64" transform="translate(295 64) rotate(-180)" fill="#292E3D"/>
<path d="M146.324 38.5V26.62H150.554C151.958 26.62 152.984 26.914 153.632 27.502C154.28 28.09 154.604 28.888 154.604 29.896C154.604 30.496 154.43 31.042 154.082 31.534C153.734 32.014 153.242 32.32 152.606 32.452V32.47C153.314 32.602 153.872 32.926 154.28 33.442C154.7 33.946 154.91 34.522 154.91 35.17C154.91 36.178 154.532 36.988 153.776 37.6C153.02 38.2 151.94 38.5 150.536 38.5H146.324ZM147.764 37.15H150.878C151.73 37.15 152.36 36.976 152.768 36.628C153.188 36.28 153.398 35.794 153.398 35.17C153.398 34.534 153.188 34.048 152.768 33.712C152.36 33.364 151.73 33.19 150.878 33.19H147.764V37.15ZM147.764 31.84H150.572C152.252 31.84 153.092 31.192 153.092 29.896C153.092 28.612 152.252 27.97 150.572 27.97H147.764V31.84ZM163.07 32.686C163.07 32.014 162.89 31.498 162.53 31.138C162.17 30.766 161.66 30.58 161 30.58C160.376 30.58 159.848 30.718 159.416 30.994C158.984 31.258 158.666 31.69 158.462 32.29L157.292 31.57C157.532 30.898 157.976 30.358 158.624 29.95C159.272 29.53 160.076 29.32 161.036 29.32C161.684 29.32 162.272 29.434 162.8 29.662C163.328 29.878 163.742 30.214 164.042 30.67C164.354 31.114 164.51 31.69 164.51 32.398V36.754C164.51 37.186 164.738 37.402 165.194 37.402C165.422 37.402 165.644 37.372 165.86 37.312L165.788 38.446C165.548 38.566 165.236 38.626 164.852 38.626C164.504 38.626 164.192 38.56 163.916 38.428C163.64 38.296 163.424 38.098 163.268 37.834C163.112 37.558 163.034 37.216 163.034 36.808V36.628L163.394 36.682C163.25 37.15 163.004 37.534 162.656 37.834C162.308 38.122 161.918 38.338 161.486 38.482C161.054 38.614 160.628 38.68 160.208 38.68C159.68 38.68 159.188 38.59 158.732 38.41C158.276 38.23 157.91 37.96 157.634 37.6C157.37 37.228 157.238 36.772 157.238 36.232C157.238 35.56 157.46 35.008 157.904 34.576C158.36 34.132 158.99 33.832 159.794 33.676L163.358 32.974V34.162L160.46 34.756C159.872 34.876 159.434 35.044 159.146 35.26C158.858 35.476 158.714 35.776 158.714 36.16C158.714 36.532 158.858 36.838 159.146 37.078C159.446 37.306 159.866 37.42 160.406 37.42C160.754 37.42 161.084 37.378 161.396 37.294C161.72 37.198 162.008 37.06 162.26 36.88C162.512 36.688 162.71 36.454 162.854 36.178C162.998 35.89 163.07 35.554 163.07 35.17V32.686ZM171.735 29.32C172.359 29.32 172.905 29.416 173.373 29.608C173.853 29.8 174.267 30.076 174.615 30.436C174.963 30.796 175.245 31.222 175.461 31.714L174.093 32.362C173.901 31.786 173.607 31.348 173.211 31.048C172.827 30.736 172.323 30.58 171.699 30.58C171.099 30.58 170.583 30.718 170.151 30.994C169.719 31.258 169.389 31.648 169.161 32.164C168.933 32.668 168.819 33.28 168.819 34C168.819 34.708 168.933 35.32 169.161 35.836C169.389 36.352 169.719 36.748 170.151 37.024C170.583 37.288 171.099 37.42 171.699 37.42C172.167 37.42 172.569 37.348 172.905 37.204C173.253 37.06 173.535 36.85 173.751 36.574C173.979 36.298 174.135 35.962 174.219 35.566L175.551 36.034C175.347 36.586 175.065 37.06 174.705 37.456C174.357 37.852 173.931 38.158 173.427 38.374C172.935 38.578 172.371 38.68 171.735 38.68C170.895 38.68 170.145 38.494 169.485 38.122C168.825 37.75 168.309 37.216 167.937 36.52C167.565 35.812 167.379 34.972 167.379 34C167.379 33.028 167.565 32.194 167.937 31.498C168.309 30.79 168.825 30.25 169.485 29.878C170.145 29.506 170.895 29.32 171.735 29.32ZM185.983 29.5L182.095 33.388L181.753 33.73L178.801 36.682V34.882L184.165 29.5H185.983ZM179.521 25.36V38.5H178.081V25.36H179.521ZM182.221 32.65L186.199 38.5H184.453L181.015 33.46L182.221 32.65Z" fill="white"/>
<path fill-rule="evenodd" clip-rule="evenodd" d="M134 32C134 31.7496 133.902 31.5094 133.728 31.3323C133.554 31.1552 133.318 31.0557 133.071 31.0557H111.172L117.016 25.1141C117.102 25.0263 117.17 24.922 117.217 24.8073C117.264 24.6926 117.288 24.5697 117.288 24.4455C117.288 24.3213 117.264 24.1984 117.217 24.0837C117.17 23.969 117.102 23.8647 117.016 23.7769C116.929 23.6891 116.827 23.6195 116.714 23.572C116.601 23.5245 116.48 23.5 116.358 23.5C116.236 23.5 116.115 23.5245 116.002 23.572C115.89 23.6195 115.787 23.6891 115.701 23.7769L108.273 31.3314C108.186 31.4191 108.118 31.5234 108.071 31.6381C108.024 31.7528 108 31.8758 108 32C108 32.1242 108.024 32.2472 108.071 32.3619C108.118 32.4766 108.186 32.5809 108.273 32.6686L115.701 40.2231C115.787 40.3109 115.89 40.3805 116.002 40.428C116.115 40.4755 116.236 40.5 116.358 40.5C116.48 40.5 116.601 40.4755 116.714 40.428C116.827 40.3805 116.929 40.3109 117.016 40.2231C117.102 40.1353 117.17 40.031 117.217 39.9163C117.264 39.8016 117.288 39.6787 117.288 39.5545C117.288 39.4303 117.264 39.3074 117.217 39.1927C117.17 39.078 117.102 38.9737 117.016 38.8859L111.172 32.9443H133.071C133.318 32.9443 133.554 32.8448 133.728 32.6677C133.902 32.4906 134 32.2504 134 32Z" fill="white"/>
</svg>
