<svg width="295" height="64" viewBox="0 0 295 64" fill="none" xmlns="http://www.w3.org/2000/svg">
<rect width="295" height="64" transform="translate(295 64) rotate(-180)" fill="#292E3D"/>
<path fill-rule="evenodd" clip-rule="evenodd" d="M160 32C160 32.2504 160.098 32.4906 160.272 32.6677C160.446 32.8448 160.682 32.9443 160.929 32.9443L182.828 32.9443L176.984 38.8859C176.898 38.9737 176.83 39.078 176.783 39.1927C176.736 39.3074 176.712 39.4303 176.712 39.5545C176.712 39.6787 176.736 39.8016 176.783 39.9163C176.83 40.031 176.898 40.1353 176.984 40.2231C177.071 40.3109 177.173 40.3805 177.286 40.428C177.399 40.4755 177.52 40.5 177.642 40.5C177.764 40.5 177.885 40.4755 177.998 40.428C178.11 40.3805 178.213 40.3109 178.299 40.2231L185.727 32.6686C185.814 32.5809 185.882 32.4766 185.929 32.3619C185.976 32.2472 186 32.1242 186 32C186 31.8758 185.976 31.7528 185.929 31.6381C185.882 31.5234 185.814 31.4191 185.727 31.3314L178.299 23.7769C178.213 23.6891 178.11 23.6195 177.998 23.572C177.885 23.5245 177.764 23.5 177.642 23.5C177.52 23.5 177.399 23.5245 177.286 23.572C177.173 23.6195 177.071 23.6891 176.984 23.7769C176.898 23.8647 176.83 23.969 176.783 24.0837C176.736 24.1984 176.712 24.3213 176.712 24.4455C176.712 24.5697 176.736 24.6926 176.783 24.8073C176.83 24.922 176.898 25.0263 176.984 25.1141L182.828 31.0557L160.929 31.0557C160.682 31.0557 160.446 31.1552 160.272 31.3323C160.098 31.5094 160 31.7496 160 32Z" fill="white"/>
<path d="M120.632 26.62V38.5H118.85L113.882 30.544L112.622 28.312H112.604L112.676 30.112V38.5H111.308V26.62H113.09L118.04 34.54L119.318 36.826H119.336L119.264 35.008V26.62H120.632ZM127.878 38.68C127.026 38.68 126.264 38.494 125.592 38.122C124.932 37.75 124.416 37.216 124.044 36.52C123.672 35.812 123.486 34.972 123.486 34C123.486 33.028 123.672 32.194 124.044 31.498C124.416 30.79 124.926 30.25 125.574 29.878C126.222 29.506 126.96 29.32 127.788 29.32C128.628 29.32 129.342 29.5 129.93 29.86C130.53 30.22 130.986 30.712 131.298 31.336C131.61 31.948 131.766 32.638 131.766 33.406C131.766 33.61 131.76 33.796 131.748 33.964C131.736 34.132 131.718 34.282 131.694 34.414H124.422V33.136H131.064L130.326 33.28C130.326 32.416 130.086 31.75 129.606 31.282C129.138 30.814 128.52 30.58 127.752 30.58C127.164 30.58 126.654 30.718 126.222 30.994C125.802 31.258 125.472 31.648 125.232 32.164C125.004 32.668 124.89 33.28 124.89 34C124.89 34.708 125.01 35.32 125.25 35.836C125.49 36.352 125.826 36.748 126.258 37.024C126.702 37.288 127.23 37.42 127.842 37.42C128.502 37.42 129.036 37.294 129.444 37.042C129.864 36.79 130.2 36.448 130.452 36.016L131.586 36.682C131.358 37.09 131.064 37.444 130.704 37.744C130.356 38.044 129.942 38.278 129.462 38.446C128.994 38.602 128.466 38.68 127.878 38.68ZM135.035 29.5L137.717 33.262L137.807 33.388L141.497 38.5H139.733L136.943 34.594L136.781 34.396L133.235 29.5H135.035ZM141.443 29.5L137.879 34.306H137.789L134.693 38.5H133.019L136.943 33.334H137.051L139.751 29.5H141.443ZM145.893 26.944V36.016C145.893 36.46 146.019 36.79 146.271 37.006C146.523 37.222 146.847 37.33 147.243 37.33C147.591 37.33 147.891 37.27 148.143 37.15C148.395 37.03 148.623 36.868 148.827 36.664L149.331 37.87C149.055 38.122 148.725 38.32 148.341 38.464C147.969 38.608 147.537 38.68 147.045 38.68C146.589 38.68 146.163 38.602 145.767 38.446C145.371 38.278 145.053 38.02 144.813 37.672C144.585 37.312 144.465 36.844 144.453 36.268V27.34L145.893 26.944ZM149.169 29.5V30.742H142.653V29.5H149.169Z" fill="white"/>
</svg>
