<svg 
 xmlns="http://www.w3.org/2000/svg"
 xmlns:xlink="http://www.w3.org/1999/xlink"
 width="137px" height="137px">
<path fill-rule="evenodd"  fill="rgb(19, 14, 39)"
 d="M84.630,68.488 L95.671,57.447 C105.910,61.454 117.983,59.354 126.254,51.82 L130.289,47.47 C139.207,38.129 139.207,23.670 130.289,14.758 L126.254,18.794 L110.113,34.935 C107.883,37.170 104.271,37.170 102.42,34.935 C99.807,32.705 99.807,29.94 102.42,26.864 L118.183,10.723 L122.219,6.687 C113.306,-2.229 98.848,-2.229 89.930,6.687 L85.895,10.723 C77.624,18.995 75.522,31.67 79.530,41.305 L64.454,56.383 L10.891,2.819 L0.0,0.0 L2.820,10.890 L56.383,64.453 L5.183,115.652 C0.724,120.112 0.724,127.335 5.183,131.794 C9.642,136.252 16.865,136.252 21.324,131.794 L68.489,84.629 L117.492,133.633 C121.951,138.92 129.174,138.92 133.634,133.633 C138.92,129.174 138.92,121.951 133.634,117.492 L84.630,68.488 ZM89.930,14.758 L93.971,10.723 C99.233,5.456 107.47,4.403 113.406,7.429 L98.7,22.829 C93.547,27.288 93.547,34.517 98.7,38.970 C102.460,43.429 109.689,43.429 114.148,38.970 L129.547,23.570 C132.574,29.930 131.521,37.743 126.254,43.12 L122.219,47.47 C113.306,55.960 98.848,55.960 89.930,47.47 C81.18,38.129 81.18,23.670 89.930,14.758 ZM82.267,46.639 C83.309,48.206 84.513,49.694 85.895,51.82 C87.283,52.464 88.771,53.669 90.337,54.710 L76.560,68.488 L68.489,60.418 L82.267,46.639 ZM17.289,127.758 C15.60,129.988 11.448,129.988 9.218,127.758 C6.989,125.529 6.989,121.917 9.218,119.688 L17.289,111.617 L25.360,119.688 L17.289,127.758 ZM21.324,107.582 L60.418,68.488 L68.489,76.559 L29.395,115.652 L21.324,107.582 ZM73.98,81.168 L81.169,73.98 L117.492,109.421 L109.421,117.492 L73.98,81.168 ZM129.598,129.598 C127.368,131.827 123.757,131.827 121.528,129.598 L113.457,121.527 L121.528,113.457 L129.598,121.527 C131.828,123.757 131.828,127.368 129.598,129.598 Z"/>
</svg>