<svg 
 xmlns="http://www.w3.org/2000/svg"
 xmlns:xlink="http://www.w3.org/1999/xlink"
 width="116px" height="155px">
<path fill-rule="evenodd"  fill="rgb(19, 14, 39)"
 d="M112.626,77.499 L96.666,109.791 C95.319,112.496 92.966,115.89 90.147,115.897 C90.159,116.17 90.222,116.124 90.222,116.249 L90.222,122.708 C90.222,126.278 87.339,129.166 83.778,129.166 L83.778,135.624 C83.778,139.194 80.895,142.83 77.333,142.83 L77.333,148.541 C77.333,152.111 74.450,154.999 70.889,154.999 L45.111,154.999 C41.549,154.999 38.666,152.111 38.666,148.541 L38.666,142.83 C35.104,142.83 32.222,139.194 32.222,135.624 L32.222,129.166 C28.660,129.166 25.777,126.278 25.777,122.708 L25.777,116.249 C25.777,116.136 25.834,116.42 25.841,115.934 C23.84,115.203 21.51,112.630 19.333,109.791 L3.373,77.499 C1.227,71.432 0.0,64.930 0.0,58.124 C0.0,26.23 25.966,0.0 58.0,0.0 C90.33,0.0 116.0,26.23 116.0,58.124 C116.0,64.930 114.773,71.432 112.626,77.499 ZM45.111,148.541 L70.889,148.541 L70.889,142.83 L45.111,142.83 L45.111,148.541 ZM38.666,135.624 L45.111,135.624 L70.889,135.624 L77.333,135.624 L77.333,129.166 L38.666,129.166 L38.666,135.624 ZM32.222,122.708 L38.666,122.708 L77.333,122.708 L83.778,122.708 L83.778,116.249 L32.222,116.249 L32.222,122.708 ZM58.0,12.916 C33.84,12.916 12.888,33.149 12.888,58.124 C12.888,65.68 14.499,71.621 17.288,77.499 L30.347,103.333 L85.791,103.333 L98.712,77.499 C101.499,71.621 103.111,65.68 103.111,58.124 C103.111,33.149 82.915,12.916 58.0,12.916 ZM58.0,25.833 L58.0,19.374 C79.354,19.374 96.666,36.725 96.666,58.124 L90.222,58.124 C90.222,40.289 75.797,25.833 58.0,25.833 Z"/>
</svg>