<svg id="Слой_1" data-name="Слой 1" xmlns="http://www.w3.org/2000/svg" viewBox="0 0 182 182"><defs><style>.cls-1{fill:#ed1c24;}</style></defs><path class="cls-1" d="M110.18,108.111q-5.093-3.928-14.477-3.929H81.66V135.1H95.92q9.093,0,14.225-4.22t5.128-11.713Q115.273,112.039,110.18,108.111Z" transform="translate(-4 -4)"/><path class="cls-1" d="M153.932,4H36.068A32.068,32.068,0,0,0,4,36.068V153.932A32.068,32.068,0,0,0,36.068,186H153.932A32.068,32.068,0,0,0,186,153.932V36.068A32.068,32.068,0,0,0,153.932,4ZM129.6,143.942Q118.693,153,99.777,153H57.652V40.3H97.666q18.408,0,28.375,6.985t9.967,19.352a23.378,23.378,0,0,1-6.184,16.079,31.9,31.9,0,0,1-15.57,9.53v.292Q126.04,94,133.279,101.271a24.84,24.84,0,0,1,7.241,18.262Q140.52,134.886,129.6,143.942Z" transform="translate(-4 -4)"/><path class="cls-1" d="M106.033,82.138q4.73-3.928,4.729-10.986,0-12.949-18.916-12.95H81.66V86.066H93.084Q101.3,86.066,106.033,82.138Z" transform="translate(-4 -4)"/></svg>