<svg id="Layer_1" data-name="Layer 1" xmlns="http://www.w3.org/2000/svg" viewBox="0 0 195.39 63.63"><defs><style>.cls-1{fill:#fff;}</style></defs><path class="cls-1" d="M22.41,13.89v.17a.87.87,0,0,0-.44.24.62.62,0,0,0-.41.26h-.09v-.18c-.17.18-.31.27-.41.27l.09.17a9.88,9.88,0,0,1-2.08,1.32l.09.18c0,.12-.16.22-.41.32v-.09l.06-.14h-.15l-.17.05c.07.24.16.36.26.36h.06a2.85,2.85,0,0,1,.94-.5v.09a1.57,1.57,0,0,1-1.26.82.16.16,0,0,0,.17.17,2.81,2.81,0,0,0,.82-.35l.09.18-1.32,1,.06.18c0,.06-.22.28-.64.67h0l.36-.09a.57.57,0,0,0,.32.09.65.65,0,0,0,.09-.35h.26v.09l-.18.26v.06h.33v.18c-.4.07-2.14,1.3-5.25,3.66a55.94,55.94,0,0,0-6,6q-3.34,4.11-3.34,7.91l.08.33c0,.06,0,.08-.08.08.25,1.67.52,2.5.82,2.5.82,0,2.35-1.17,4.6-3.49,1.15-1.76,1.72-2.9,1.72-3.43V29.79l.5-.58a5.88,5.88,0,0,1-.09-.91l.18-.09a.08.08,0,0,1,.09.09l.17-.09.33.09.41-.23h.17c.67.41,1,.65,1,.73a5.19,5.19,0,0,1,1.17.91l.41-.06c.22,0,.38.41.5,1.23l-.09.35q0,.49-.09,2.73a26,26,0,0,0,1.09,4.74.51.51,0,0,1-.24.09.44.44,0,0,0,.41.35v.24c-.11,0-.17,0-.17.08a9.7,9.7,0,0,0,.49,1.17l-.14.09c-.22-.45-.35-.67-.41-.67h-.09a10.23,10.23,0,0,0,.82,1.76v.06c0,.39-.44.58-1.32.58,0,.12-.19.18-.58.18a2.6,2.6,0,0,1-1.67-1.09,9.59,9.59,0,0,1-1.26-2.4c-2.43,2.33-4.17,3.49-5.25,3.49h-1a3.86,3.86,0,0,1-2-.76c-2.12-.79-3.46-1.75-4-2.91a8.11,8.11,0,0,1-.56-2.75s.06,0,.06-.09-.18-.19-.32-.58c.12-2.19.39-3.41.82-3.66h.26a1.86,1.86,0,0,0,.24-.65l-.15.06c-.08,0-.16-.08-.26-.24.17,0,.43-.44.76-1.34.08,0,.24-.22.5-.65l.17.06A19.71,19.71,0,0,0,4.42,26.4v-.09c-.41.49-.69.73-.85.73l-.08-.15a38,38,0,0,1,7.26-7.09A26.25,26.25,0,0,1,13.33,18a.48.48,0,0,1,.09.23l-.18.32.76-.49h.15v.17h.09v-.17q-.09,0-.09-.06l1.58-1.09a6.77,6.77,0,0,1,1.94-1v-.09h-.09a2.6,2.6,0,0,1-.68.23v-.32A2.37,2.37,0,0,0,18.25,15h.15v.26l-.09.15h.09a1.21,1.21,0,0,1,.58-.23l.18.08a6.8,6.8,0,0,1,1.67-.67A3.43,3.43,0,0,1,22.41,13.89ZM1.49,30.47v.09q.12,0,.27-.27H1.67Q1.49,30.32,1.49,30.47ZM2.67,28.3l.08.18-.17.08H2.49v-.08Q2.52,28.3,2.67,28.3ZM9,23.64a.6.6,0,0,1-.08.24H9l.18-.24Zm.33-.26v.26a.15.15,0,0,0,.17-.17v-.09Zm.35-.32v.17H9.9v-.17Zm.82-.5h.09c.21-.08.32-.17.32-.27h-.15C10.67,22.29,10.59,22.38,10.49,22.56Zm.58-2.49c0,.16-.1.23-.32.23v.09h.15l.26-.32ZM10.9,21.8a.9.9,0,0,1-.06.26.55.55,0,0,1,.32.18l.18-.27v-.09l-.18.09Zm1.43-.91V21c0,.11.07.17.15.17l.09-.17v-.09Zm1-.76-.09.17v.09h.09a.16.16,0,0,1,.18-.18v-.08Zm2.31-3.67q.18,0,.18.18a7.58,7.58,0,0,0-1.26,1,3.89,3.89,0,0,0-.91.49h-.09V18a2.22,2.22,0,0,1,.85-.5C14.41,17.3,14.82,17,15.64,16.46Zm-1.9,3.11v.06h.18v.17h-.18v.09h.09a.59.59,0,0,1,.32-.09c0-.07-.11-.15-.32-.23Zm0,2.14c0,.12.08.17.18.17.07-.21.15-.32.23-.32h.09a.59.59,0,0,0,.32.15c.25-.1.4-.21.44-.32a.16.16,0,0,1-.18-.18v-.06a1,1,0,0,0,.59-.35h.09v.09l-.09.17h.32a.71.71,0,0,1,.09-.26h-.23v-.15c0-.17.25-.29.64-.35,0-.11-.05-.17-.15-.17A5.91,5.91,0,0,0,13.74,21.71Zm.67-2.4v.08a.51.51,0,0,1,.24.09v-.17Zm.68,2v.09h.06c.11,0,.17-.06.17-.18v-.06h-.09C15.14,21.15,15.09,21.2,15.09,21.3Zm.14-2.4h.09a.16.16,0,0,0,.18-.18v-.09Q15.38,18.63,15.23,18.9Zm.85-2.67h.24v.18h-.24Zm1.91.91H17.9L17.67,17v.35a.69.69,0,0,1-.27.09v.09h.18a5.17,5.17,0,0,1,1-.53v-.14A1.68,1.68,0,0,0,18,17.14Zm.09-1.76-.09.18v.08h.09a.15.15,0,0,1,.17-.17v-.09Zm1.31-.73v.09c0,.07-.21.21-.64.41h-.26v-.27A3.61,3.61,0,0,0,19.39,14.65Zm-.64.82h.06c.12,0,.17-.05.17-.15H18.9A.13.13,0,0,0,18.75,15.47Z"/><path class="cls-1" d="M41.25,15.91l.09.17-.26.65v.09h.08v-.18h.18v.18l-1,1.87v.09h.09a8.31,8.31,0,0,1,1.26-2V17q-1.14,2-2.34,4.31v.09h.08c0-.24.14-.35.3-.35h.09v.17l-.21.26v.18l.38-.44.18.09c0-.08.08-.17.26-.26v.08a1.59,1.59,0,0,1-.26.71.79.79,0,0,1,.08.38h-.08L40,22.12l-.09.17q.27,0,.27.18c-.34.14-.52.31-.56.53.14,0,.21.08.21.17v.09c0,.14-.37.53-1.09,1.17v.09l.18-.09c.11,0,.17.08.17.18s-.3.39-.61,1.17a4,4,0,0,0-.65,1.73l-.35.61h.09l.18-.08c0,.06,0,.08.08.08l-1.08,2.26c-.25.35-.43.53-.53.53l.09.17c0,.32-.25.68-.73,1.09l.09.17-1,1.91h-.27l.09.44a2.18,2.18,0,0,0-1.17,1.52A13.8,13.8,0,0,1,31.44,39a1.78,1.78,0,0,0,.55-.35v.09a19.41,19.41,0,0,1-2.52,2.43c0,.3-.42.6-1.26.91a3.27,3.27,0,0,1-1.78.62c-1.22,0-2.92-.7-5.13-2.08a8.54,8.54,0,0,1-2.34-6,24.76,24.76,0,0,1,1.78-8.53c.69-1.21,1.16-1.81,1.44-1.81s.38-.09.38-.27l1.52.44a1.85,1.85,0,0,1,.71,1.35,3.36,3.36,0,0,0-.62,1.35h.09c-.12,1.93-.24,3.22-.35,3.87a.78.78,0,0,1,.35.08,10.72,10.72,0,0,1-.53,2.08l.09.18v.53h-.21v-.79h-.08a8.51,8.51,0,0,1-.18,1.26h.18v-.18h.2v.09c-.25.17-.38.32-.38.44V35h.09V34.6h.17V36a.55.55,0,0,0,.12.35l-.12.17a.58.58,0,0,1,.12.3q-.12,0-.12.09c.1,0,.29.62.56,1.87a1.52,1.52,0,0,1,.35.82h.35a16.52,16.52,0,0,0,4.25-4.34l2.32-3.83,5.12-9.64c1.94-3.52,3.08-5.31,3.43-5.39a.08.08,0,0,0,.09.09l-.09.2v.09l.53-.47a.65.65,0,0,0,.35.09C40.87,16.17,41,16,41.25,15.91ZM23.73,32l-.12.18v.44h.12a1,1,0,0,1,.18-.53Zm.7-2.52h.18v.09l-.26,1.26h-.18A8.4,8.4,0,0,1,24.43,29.47Zm6.3,10.17a.15.15,0,0,1-.17.17v.09h.17l.18-.26Zm.27-.18h.08c.12,0,.18-.07.18-.2v-.09C31.18,39.17,31.09,39.27,31,39.46Zm4-5.59h.18v.2a.16.16,0,0,1-.18.18h-.09A.85.85,0,0,0,35,33.87Zm.62-.88h.09a2.7,2.7,0,0,0-.27.61h-.17v-.17C35.37,33.13,35.49,33,35.57,33Zm2.81-9.35a.51.51,0,0,1-.12.35h.12l.09-.17v-.18Zm.88-5.94V18c.1,0,.18-.1.26-.29v-.09A.61.61,0,0,1,39.26,17.7Zm.26-.53v.26h.09c.1,0,.19-.09.29-.26V16.9h-.08Q39.67,16.9,39.52,17.17Z"/><path class="cls-1" d="M49.84,0a.72.72,0,0,1,.08.32l.15-.09V.32a1.43,1.43,0,0,0-.15.59H50l.41-.27.09.18A26.82,26.82,0,0,0,49.34,4h-.09l.09.15-.82,1.9h.23c.06-.39.18-.58.35-.58,0,.08.08.16.24.26a.66.66,0,0,0,.09-.26h.08a.16.16,0,0,1,.15.17c-.23.43-.4.65-.5.65v.09a.55.55,0,0,1,.18.32h.09c.07,0,.18-.17.32-.5V5.8c.08,0,.18-.14.32-.41L50,5.24l.68-1.64c0-.09-.11-.2-.33-.32s-.21.11-.35.32c.08,0,.22.14.41.41-.37.51-.61.86-.73,1.06h-.15V4.92h-.17c0,.31-.06.47-.18.47s-.14,0-.14-.15A4.49,4.49,0,0,0,49.51,4c.49-1.25.74-1.9.74-2l.23-.17h.09a2.35,2.35,0,0,0-.09.58c.18,0,.26.11.26.32l-.17.09.09.47h.14a1.73,1.73,0,0,1,.59-1,.08.08,0,0,0,.09.09.83.83,0,0,1-.41.47c0,.06,0,.09.08.09a17.59,17.59,0,0,1-.58,2.22l.17.09c.2-.78.41-1.25.65-1.4,0,0,0,.08.09.08a2.71,2.71,0,0,1-.27,1.15h.27s0,.08-.09.08l.09.41q-1.23,3.55-2.55,7.8c.43,0,.64,0,.64.06l.18-.06a24.89,24.89,0,0,0,3.1-.18.69.69,0,0,0,.27.09,5.91,5.91,0,0,1,2-.26.62.62,0,0,0,.23.08.68.68,0,0,1,.36-.08c0,.11,0,.17.14.17s.08-.17.18-.17h.73l.41-.06s0,.06.09.06.49-.19,1.46-.33v.09l2-.32a.63.63,0,0,0,.33.09c0-.12.07-.18.17-.18h.09a.59.59,0,0,1,.32.09.62.62,0,0,1,.32-.09l.18.09c0-.08.08-.17.24-.26a.53.53,0,0,0,.23.08.17.17,0,0,1,.18-.14H63l-.06.14h.24c0-.15.57-.32,1.72-.49a.73.73,0,0,0,.33.08,1.43,1.43,0,0,0,.73-.32c0,.12.08.18.23.18a1.07,1.07,0,0,0,.59-.27.59.59,0,0,1,.32.09.71.71,0,0,1,.26-.09l.15.09a5.86,5.86,0,0,1,1.64-.56c0-.05.06-.08.18-.08s.07.14.14.14a3.74,3.74,0,0,0,1.09-.32.59.59,0,0,0,.32.09h.18v-.09a.52.52,0,0,1-.09-.23h.09a.72.72,0,0,1,.32.08l2.87-.76h.09l-.09-.14V9.67a.16.16,0,0,1,.15.17l.17-.08.18.08a36.46,36.46,0,0,1,3.66-1h.26V8.61H79c.54-.09.82-.21.82-.35l.23.18a7.42,7.42,0,0,1,1.32-.5V7.85l.41.09a9,9,0,0,1,2.14-.56c0-.06.06-.09.17-.09l.15.09L85.08,7h.18l.23.18h.09L85.49,7a3.15,3.15,0,0,0,.82-.41h.23c0-.08.09-.16.27-.23,0,.07.08.15.23.23q0-.15.27-.15l.41.09c0-.11,0-.17.14-.17a.64.64,0,0,0,.27.08l.41-.32h.06l-.06.15v.09h.06a8.51,8.51,0,0,0,1.81-.74l.41.09c0-.12.08-.17.18-.17l.14.08h.09V5.57h-.17V5.39l.58.09h.09l-.09-.15V5.24L92.38,5v.09l-.09.17h.41a6.65,6.65,0,0,1,2-.58A9.55,9.55,0,0,1,96.89,4c0-.11.07-.17.17-.17l.15.09c.27-.12,1.32-.39,3.13-.82q0-.09.06-.09h.68l.41.09V2.78a6.12,6.12,0,0,0,1-.26h.33v.09l-.06.17h.06a6.34,6.34,0,0,1,1.31-.32v.06c0,.16-1.06.46-3,.91L95.16,5.07v.17h.09a5.18,5.18,0,0,1,.9-.26v.09l.33-.15a.6.6,0,0,0,.23.06c.27-.14.41-.24.41-.32l.41.09a1.22,1.22,0,0,1,.59-.33l.41.09c0-.12.08-.17.17-.17l.15.08c0-.17.36-.31,1.08-.41h.15v.24h.26l-.08-.41h.49l.47-.32h.09l.18.08c0-.11.06-.17.14-.17h.09a.65.65,0,0,0,.18.41l-.27.32a.08.08,0,0,1,.09.09h-.09c-.09,0-.14-.08-.14-.24q-.18,0-.18.15a.71.71,0,0,0,.26.09c0,.19-.39.3-1.17.32a.52.52,0,0,0,.09-.23h-.09a1,1,0,0,1-.47.08q0,.15.24.15v.18l-.41.08-.09-.17a.08.08,0,0,1,.09-.09l-.09-.15V4.34h.26V4.25a.71.71,0,0,1-.26-.09.89.89,0,0,1-.56.18v.17a.83.83,0,0,1,.47.24h.09L99.52,5a1,1,0,0,1,.06.26,6.2,6.2,0,0,0-1.23.41c-.1,0-.14-.05-.14-.17.82-.25,1.23-.42,1.23-.5h-.33V4.83h.15V4.66h-.09A1.52,1.52,0,0,1,98,5.24.61.61,0,0,1,97.94,5h-.06l-.26.18-.15-.09-.09.17h.24v.15c-1,.29-1.47.49-1.47.59h.09l.56-.09V6c0,.09-.44.26-1.32.49q0,.09-.15.09c-.17,0-.26-.11-.26-.35h-.15c-.23.39-.46.59-.67.59V6.71a1.14,1.14,0,0,1-.56.17V6.71a5.18,5.18,0,0,1,.74-.15l-.09-.17a30.79,30.79,0,0,0-4.57,1.4,30.42,30.42,0,0,0,3.6-1c0,.06.25.22.73.49a5,5,0,0,1-1,.33V7.53L93,7.62h-.32q.12-.3,1-.33a.15.15,0,0,0-.17-.17h-.41a4.49,4.49,0,0,1-1,.26H92c0,.18-.43.34-1.31.47,0,.12-.16.18-.47.18l.06.17A2.76,2.76,0,0,1,91.32,8h.15c0-.22.16-.32.49-.32h.42v.14h-.15a3.07,3.07,0,0,0-1,.35,5.8,5.8,0,0,0-2,.65c-.55,0-.82.08-.82.23A.65.65,0,0,0,88.13,9l-.35.15A.13.13,0,0,0,87.63,9c0,.2-.3.34-.91.41l-.18-.08h-.05v.08h.14c0,.1,0,.15-.14.15l-.41-.09c0,.08-.3.25-.82.5a.08.08,0,0,0-.09-.09.69.69,0,0,0-.09.27H85Q85,10,84.9,10l-.14.09L84.58,10c-.06,0-.19.14-.41.41,0-.1,0-.15-.14-.15h-.27a4.16,4.16,0,0,1-1.46.47c-.06-.21-.17-.32-.33-.32a.61.61,0,0,1-.26.09v.09c.24,0,.35,0,.35.14-.33.14-.5.26-.5.35h.09l-.09.15v.09A39.7,39.7,0,0,0,86.22,9.9a.08.08,0,0,1,.09.09,2.57,2.57,0,0,1,.91-.32l.15.09a9.88,9.88,0,0,1,2.81-.91q9.6-2.79,11.13-3.11v.15L91.82,8.61a5,5,0,0,0-1.32.47,35.35,35.35,0,0,0-4,1.09c-.18.09-1.22.4-3.14.9a3.5,3.5,0,0,0-.82.39.65.65,0,0,0-.23-.06.45.45,0,0,0-.09.23l-.41-.09h-.09v.09h.18v.18c-1.37.25-2.13.49-2.29.73a.66.66,0,0,0-.26-.09,10.27,10.27,0,0,1-2.79.91c0,.06,0,.09-.08.09a.51.51,0,0,0-.24-.09l-.09.15-.41-.06a.77.77,0,0,0-.55.32.69.69,0,0,0-.27-.09l-.08.18-.15-.09H74.5c0,.16,0,.23-.14.23h-.18l-.41-.08c0,.11-.14.23-.41.35l-.5-.09q-1.08.73-9.49,2.28c-1.37.28-3.14.55-5.33.83V17.2A63.25,63.25,0,0,1,48,18h-.15a37.08,37.08,0,0,0-1.64,5.8A147.25,147.25,0,0,1,39.9,41.13a2.78,2.78,0,0,1-1,1.41h-.18c-.54,0-.82-.06-.82-.18l-.14.09h-.09l-1.47-.56a1,1,0,0,0-.26.06c-.39,0-.77-.27-1.14-.82,1.31-2.75,2.26-5,2.87-6.71l1.46-3.86A22.08,22.08,0,0,1,40,28q1.14-3.43,2.38-8.29A5.93,5.93,0,0,0,43,17.87c-2.64-.45-4.39-1-5.25-1.64-.27,0-1-.55-2.22-1.64v-.26h.17v-.15a3.27,3.27,0,0,1-.49-1.55.08.08,0,0,1-.09-.09l.09-.18a.57.57,0,0,1-.09-.32h.09l-.09-.17v-.06c.06-.82.22-1.23.5-1.23l3.83,1.78L42,13l.17-.09a20.32,20.32,0,0,0,2,.41A21.73,21.73,0,0,0,45,10.72a33.14,33.14,0,0,1,1.38-4.33c.08-.43.21-.65.41-.65q0-.09-.06-.09a1.9,1.9,0,0,1,.65-1.4l-.09-.15A1.89,1.89,0,0,1,48,3.69c0-.17,0-.26-.06-.26a5.24,5.24,0,0,1,.24-1h.41A6.84,6.84,0,0,1,49.84,0ZM46.47,6.56V7h.08l.09-.41Zm1.81.32v.24A.13.13,0,0,0,48.43,7V6.88ZM48.43,9v.24h.26V9Zm.82-2v.15A.71.71,0,0,1,49.51,7V6.8h-.08C49.31,6.82,49.25,6.88,49.25,7Zm.41-2.55a.65.65,0,0,1-.15.33v.08c.08,0,.19-.1.33-.32Zm.26-.67-.08.41c.07,0,.18-.11.32-.32L50,3.75Zm.33,2.46c.15,0,.29-.27.41-.82h-.09C50.41,5.39,50.3,5.66,50.25,6.21Zm.32-4.83h.17v.26h-.35V1.55C50.41,1.44,50.47,1.38,50.57,1.38ZM72.63,13.45v.06l.5.08c0-.07-.09-.15-.27-.23A.45.45,0,0,1,72.63,13.45Zm.64-.09a.17.17,0,0,0,.18.15c.39,0,.6-.08.64-.24l-.41-.09v.18H73.6v-.18h-.15Q73.27,13.21,73.27,13.36ZM74.36,13l.06.15a.6.6,0,0,1-.24.08q0,.18.18.18a4.64,4.64,0,0,0,1.14-.59A.87.87,0,0,1,76,13l.09-.18c-.06,0-.09,0-.09-.08l.41.08.5-.14q0-.18-.15-.18h-.09l-.26.18q0-.18-.06-.18a.66.66,0,0,1-.26.09v-.09A6.46,6.46,0,0,1,74.36,13Zm2-1V12h.32v-.17h-.09A.53.53,0,0,1,76.32,12Zm.82.27c0,.09-.06.14-.18.14s.08.18.18.18h.15v-.09l-.09-.17q.09,0,.09-.06Zm.41-.18a.57.57,0,0,1-.09.32h.24v-.14l.17.06h.24v-.06q0-.18-.15-.18ZM78.2,12V12c0,.12.07.18.17.18h.06V12Zm1.64-1v.08h.08L81,10.81a.66.66,0,0,0,.26.09V11c0,.09-.06.14-.17.14a.88.88,0,0,1-.33-.06l-.49.24-.18-.09c0,.08-.14.19-.41.32h-.15l-.17-.08c0,.11-.14.17-.41.17l.09.18-.18.06a.13.13,0,0,0-.15-.15.61.61,0,0,1-.26.09.55.55,0,0,1,.18.32h.17L78.69,12v-.08l.41.08c.1,0,.15,0,.15-.14l.18.06h.17l-.09-.15.15-.09q0,.18.18.18H80l-.09-.18.15-.09v.18a2.67,2.67,0,0,0,1.41-.59L81.39,11l.26-.41h-.41v.23h-.09v-.23Zm-1.41.47h.35a.13.13,0,0,0,.15-.15h-.32Q78.43,11.34,78.43,11.46ZM81,10.25v.06h.32c.12,0,.18-.05.18-.14a.08.08,0,0,1-.09-.09A.8.8,0,0,1,81,10.25Zm1.14-.35V10h.35l-.09-.15A.84.84,0,0,1,82.12,9.9Zm.18.41v.09a.62.62,0,0,0,.32-.09l.17.09h.09v-.09c-.17,0-.26-.08-.26-.23C82.4,10.16,82.3,10.23,82.3,10.31Zm.23-.47V10l.59-.09L83,9.76Zm.35.24v.17a1.07,1.07,0,0,1,.41.06c0-.15.16-.23.47-.23V9.9H83.7A3.3,3.3,0,0,1,82.88,10.08Zm.74-2.46v.09h.32V7.62ZM83.85,10H84c.09,0,.14-.05.14-.15H84Q83.85,9.84,83.85,10Zm.59-.64h.14a.69.69,0,0,1,.27-.09V9.17h-.27A.16.16,0,0,0,84.44,9.35Zm.14.23v.09h.18a9.9,9.9,0,0,0,1.78-.5V9.08h-.23A6.25,6.25,0,0,1,84.58,9.58Zm.68-1.46h.23l.23-.18A.69.69,0,0,0,86,8l.09-.18q-.18,0-.18-.06C85.47,7.91,85.26,8,85.26,8.12Zm.55.82h.27V8.76H86Q85.81,8.79,85.81,8.94Zm.41-1.23v.08h.18a1.5,1.5,0,0,0,.5-.17.45.45,0,0,0,.23.09l.09-.18H87A3.83,3.83,0,0,0,86.22,7.71Zm.5,1.23v.14L87.54,9V8.94a.45.45,0,0,1-.23-.09A2.23,2.23,0,0,1,86.72,8.94Zm.41-2.32v.09h.32V6.62Zm.5.67v.09h.23A4.59,4.59,0,0,1,89,7c0,.08.08.17.23.26h.09c-.12-.13-.18-.22-.18-.26a1.05,1.05,0,0,1,.5-.15L90,7l-.09-.17,2.55-.74V5.89Zm2.05.91c0-.06,0-.08-.09-.08s-.57.28-1.73.55v.18h.27a12.17,12.17,0,0,1,2-.65V8h-.18Zm-1.08,0h.08c.12,0,.18-.06.18-.17h-.09C88.65,8.05,88.6,8.11,88.6,8.2Zm3.78-1.64a.15.15,0,0,0,.17.15h.09q0-.15-.18-.15Zm.32-1.64h.09V5q0,.18-.15.18L92.55,5Zm0,.88V6h.09L93,5.89a.62.62,0,0,0,.32.09h.09c0-.08-.11-.16-.32-.24q0,.06-.09.06V5.74A.9.9,0,0,1,92.7,5.8Zm.67.35V6.3a.78.78,0,0,1,.41.09V6.21Zm.06-.41,1-.26V5.39h-.09C93.73,5.47,93.43,5.59,93.43,5.74ZM94.19,7h.41v.18a1.53,1.53,0,0,1-.35.08l-.06-.17Zm.47-1.79a.63.63,0,0,1,.09.33h.09a.69.69,0,0,1,.23-.41h-.15A.73.73,0,0,1,94.66,5.24Zm.5,1.56V7L94.75,7C94.75,6.91,94.88,6.84,95.16,6.8Zm.41-.18h.26c0,.12-.06.18-.17.18h-.09Zm.58-1h.15a.87.87,0,0,1,.26-.08V5.48H96.3A.16.16,0,0,0,96.15,5.65Zm.41-.49.09.17a.51.51,0,0,1,.24-.09V5.16Zm.33-.09a.48.48,0,0,1,.23.09h.09V5.07a.13.13,0,0,1-.15-.15C97,4.94,96.89,5,96.89,5.07Zm.17.32h.06q.18,0,.18-.15h-.09Q97.06,5.27,97.06,5.39Zm.65.18H98c0,.11,0,.17-.15.17h-.17Zm.08.41h.33c0,.11-.06.17-.18.17h-.15Zm.83-.24h.08a.13.13,0,0,1,.15.15V6h-.23Zm1.46-.35.09.18-.24.17h-.58C99.35,5.64,99.59,5.53,100.08,5.39Zm.5-1.38v.15c.12,0,.17.06.17.18H101c.12,0,.17-.06.17-.18S101,4.11,101,4h.23V3.84A1,1,0,0,1,100.58,4Zm.09,1.15h.23v.17h-.23Zm.82-1.47-.09.15v.09a.59.59,0,0,1,.32-.09V3.75A.6.6,0,0,1,101.49,3.69Zm.23-.76V3h.09c.43-.06.64-.14.64-.24h-.08A6.6,6.6,0,0,0,101.72,2.93Zm.18.5h.41c0,.21,0,.32.14.32h.68v.09c0,.12-.26.2-.76.26V4l.08-.17a.51.51,0,0,1-.55-.32Zm.41.82h.14v.17h-.32C102.15,4.31,102.21,4.25,102.31,4.25Zm.82-1.14.14.41-.23.17H103a.15.15,0,0,1-.17-.17h.35V3.43h-.35c0,.11,0,.17-.15.17s-.18-.06-.18-.17S102.68,3.22,103.13,3.11Zm1.23-.24-.18.24a.45.45,0,0,1,.09.23h-.09L104,3.19h-.27l.09.15v.09h-.17q-.12,0-.24-.24A2.42,2.42,0,0,1,104.36,2.87Zm1-.67c0,.13-.32.24-1,.32l-.09-.15A7.74,7.74,0,0,1,105.32,2.2Zm-.41.5v.17l-.14-.09q0,.15-.18.15h-.09c-.09,0-.14-.05-.14-.15Zm.27-.91V2a5.26,5.26,0,0,1-.68.15L104.42,2A1.87,1.87,0,0,1,105.18,1.79Zm.41.26h.23V2.2h-.41A.17.17,0,0,1,105.59,2.05Zm.88.24h.17c0,.13-.24.21-.73.23V2.37Z"/><path class="cls-1" d="M55.34,20.6h1.29A8.26,8.26,0,0,1,64,24.79a19,19,0,0,1,1.2,3.57l-.12.53v.44a.88.88,0,0,0,.12.44,18.66,18.66,0,0,1-1.61,5.06A6.51,6.51,0,0,1,62,38a4.73,4.73,0,0,0-2.25,1.61,19.35,19.35,0,0,0-2.61,1.49h.12a9.67,9.67,0,0,1,1.61-.41v.21L53.82,42.6a7.31,7.31,0,0,1-4.19-1.53,13.88,13.88,0,0,1-2.05-2.9c0-.09-.4-1.1-1.2-3-.08-.86-.19-1.29-.32-1.29,0-2.6,1.36-4.73,4.1-6.39a14.94,14.94,0,0,1,2.81-1c0-.07,0-.11.09-.11a2.64,2.64,0,0,1,1.85,1.08,3.42,3.42,0,0,0,.52,1.08v.33c0,.41-.39.92-1.17,1.52q.21,0,.21.21a3.34,3.34,0,0,0-1.41,1.52v.2h.12l.55-.32h.41l-2.25,1.61a5.94,5.94,0,0,0-1.53,2.49c0,.16.3.37.88.65h.53A13.93,13.93,0,0,0,57.28,35a11.19,11.19,0,0,0,3.57-4.1,11,11,0,0,0,1.06-3.66v-.77c-.51-.8-1.62-1.4-3.34-1.81A4.63,4.63,0,0,1,57,24.46l-1.85.24v-.24c.1,0,.5-.07,1.2-.2h1.85l.52.09.12-.21L58.57,24a12,12,0,0,1-1.5.12l-1.64-.53h-.2a1,1,0,0,0-.44.09.91.91,0,0,0-.41-.09l-.56.09c-.39-.49-.67-.73-.85-.73s-.44-.23-.44-.32A2.21,2.21,0,0,1,53,22a1.12,1.12,0,0,0-.55-.85A7.64,7.64,0,0,1,55.34,20.6Z"/><path class="cls-1" d="M77.17,22.65v.08c-.08.2-.28.3-.61.3v.2h.2a6.18,6.18,0,0,1,1.67-.5l.5.12a2.27,2.27,0,0,0,.41-.12,8.62,8.62,0,0,1,3.25,1.21c.53.45.79.71.79.79a.75.75,0,0,0-.08.29,14.8,14.8,0,0,1,2.16,2,13.2,13.2,0,0,1,4.25-2.66l.5-.09v.09a5.87,5.87,0,0,1,2.17-.79v.11l.58-.2a.71.71,0,0,0,.3.09l.79-.09a8.05,8.05,0,0,1,1.2.38c0-.1.13-.2.38-.29A31.38,31.38,0,0,1,98.79,25a5.72,5.72,0,0,1,1.88,1.08c.82.2,1.74,1.19,2.75,3l1.2,1.38a7.77,7.77,0,0,1,.5,1.79c-.08,0-.12,0-.12.08s.21.1.21.3a5.38,5.38,0,0,0-.29,2.08q-1.12,2.66-7,6.71a94.31,94.31,0,0,1-9.41,5.74Q84.79,49.69,82,52q-7,6.72-7.62,8.29a11.4,11.4,0,0,1-1.58,2h-.3v.08l.21.3H72.6l-.17-.09h-.3c0-.16-.13-.26-.41-.29V62h-.2q0,.3-.18.3h-.11v-.12a3.33,3.33,0,0,1,.41-1l-.21.09c-.14,0-.2-.07-.2-.21.72-1.11,1.15-1.67,1.28-1.67V59.3c-.39,0-.58-.1-.58-.3l.88-1.2.2.09a3.17,3.17,0,0,1,1.09-1.76h.08v.09l-.29.41v.29H74c.1,0,.26-.19.5-.58V56q-.33,0-.33-.18c1.25-1.66,2-2.49,2.38-2.49v.2h.2l-.2-.29a13.71,13.71,0,0,1,1.49-1.79v-.08H78a.78.78,0,0,1-.32.08c0-.09.24-.32.7-.67l.21.09h.09V50.8h-.21c0-.14.09-.2.21-.2l.2.08h.09V50.6h-.2v-.21c0-.12.1-.18.32-.18V50c-.8.55-1.2.87-1.2,1a14.37,14.37,0,0,1-1.29,1.11h-.09V52l.09-.2h-.09c-.08,0-.37.3-.88.91v.08h.18V53a12.61,12.61,0,0,1-1.59,1.79l-.46-.41a1.07,1.07,0,0,0,.08-.5h-.08v-.09c0-.14.12-.21.38-.21l-.09-.2c0-.1.39-.36,1.17-.79a18,18,0,0,0,2.08-2.26h-.09l-.2.09-.12-.18c.22-.07.42-.31.62-.7h.17v-.09l-.09-.2a1.75,1.75,0,0,1,.71-.29l-.12-.21.59-.41a.08.08,0,0,1-.09-.09,7.37,7.37,0,0,1,1.49-.88,10.13,10.13,0,0,0,1.76-1.7c.49-.35,1.28-.83,2.37-1.46q0-.41,1.2-1.08h-.29V43a5.21,5.21,0,0,1,1.88-1.09V42l.17-.12.41.12,1.29-.7c.68-.59,1.11-.88,1.29-.88v-.12H89.8v-.17a13.45,13.45,0,0,0,2.46-1.59l2.67-1.69a.92.92,0,0,0,.32-.09.71.71,0,0,0,.38.09,4.78,4.78,0,0,0,.79-.88c.47,0,.7-.27.7-.79h.18v.29h.12c.09,0,.19-.1.29-.29l-.21-.3a7.14,7.14,0,0,1,1.18-1h.11L99,34c0-.17.13-.31.38-.41,0-.39.14-.58.41-.58.39-.39.59-.69.59-.88.11,0,.28-.37.49-1.11.16,0,.33-.33.5-1q0-1.2-4.57-1.79a8.6,8.6,0,0,1-1.08-.09,11,11,0,0,0-5,1.67,16.28,16.28,0,0,0-4.63,4.75A15.41,15.41,0,0,0,84.56,37l.11.18-1.29,3.16c-.17,0-.53.24-1.08.71H82c-1.19-1-1.79-1.71-1.79-2.08s-.1-.59-.29-.59c0,.14-.07.2-.21.2h-.2a5.45,5.45,0,0,0-.79-1.78,5.87,5.87,0,0,1,.7-1.5.69.69,0,0,1-.09-.38c.22-.08.51-.48.88-1.2l-.09-.17c.28-.08.57-.44.88-1.09q-.09,0-.09-.12L81.3,32l-.08-.2v-.09l1-3.05.12-.5c-.12-1-.25-1.49-.41-1.49q-4.64,0-11,8.91a6.43,6.43,0,0,1-.67,1.26L69.06,40l.29.5-.09.41a.79.79,0,0,1,.09.38l-.5.29h-.29a.08.08,0,0,1-.09-.09.87.87,0,0,1-.29.09,7.82,7.82,0,0,1-1.29-1.29c-.1,0-.39-.42-.88-1.26-.08,0-.31-.2-.7-.61a5.57,5.57,0,0,1,.5-2.55c-.14,0-.21-.1-.21-.29a2.41,2.41,0,0,1,.41-.91l-.12-.21v-.17a3.21,3.21,0,0,0,.5-1.29c.24,0,.69-.5,1.38-1.5.31,0,.57-.26.79-.79l.41-.38-.12-.2a10.46,10.46,0,0,1,1.79-2.26c.14,0,.43-.33.88-1L74,24.61h-.12a.56.56,0,0,1-.29.12v-.12c0-.12.23-.24.7-.38,0,.14.09.2.21.2a.93.93,0,0,1,.47-.2v-.29h-.09a1.11,1.11,0,0,1-.3.08v-.08a6.93,6.93,0,0,1,2.47-1.29ZM72.43,56.34l.17.09h.32a4.28,4.28,0,0,1-1.08,1.46h-.12V57.8a.53.53,0,0,0,.12-.29l-.5.5-.11-.21A5,5,0,0,1,72.43,56.34Zm-.5,6.71a.64.64,0,0,0,.29.08v.21a.93.93,0,0,0-.58.29v-.29C71.64,63.24,71.73,63.14,71.93,63.05Zm.88-7.21v.29H72.6V56Q72.66,55.84,72.81,55.84Zm.41,1.87.17.09.12-.2v-.09h-.12A.19.19,0,0,0,73.22,57.71Zm2.17-3.86.08.2-.17.09h-.12v-.09A.2.2,0,0,1,75.39,53.85Zm.49-30.41v.09h.3c.09,0,.19-.1.29-.3h-.09A1,1,0,0,1,75.88,23.44Zm1,27.86-.18.29.18.09c0-.2.07-.29.21-.29V51.3Zm2.67-1.79c0,.14.1.21.2.21h.12a.73.73,0,0,1-.12-.41C79.58,49.33,79.52,49.39,79.52,49.51Zm7-7.12h.09c.27-.1.41-.19.41-.29h-.21C86.74,42.1,86.65,42.2,86.55,42.39Z"/><path class="cls-1" d="M115.08,20.6h1.29a8.26,8.26,0,0,1,7.33,4.19,19.73,19.73,0,0,1,1.2,3.57l-.12.53v.44a.88.88,0,0,0,.12.44,19,19,0,0,1-1.61,5.06A6.51,6.51,0,0,1,121.76,38a4.73,4.73,0,0,0-2.25,1.61,18.76,18.76,0,0,0-2.61,1.49H117a9.67,9.67,0,0,1,1.61-.41v.21l-5.07,1.73a7.31,7.31,0,0,1-4.19-1.53,13.52,13.52,0,0,1-2.05-2.9c0-.09-.4-1.1-1.2-3-.08-.86-.19-1.29-.32-1.29,0-2.6,1.36-4.73,4.1-6.39a14.7,14.7,0,0,1,2.81-1c0-.07,0-.11.09-.11a2.6,2.6,0,0,1,1.84,1.08,3.57,3.57,0,0,0,.53,1.08v.33c0,.41-.39.92-1.17,1.52.14,0,.2.09.2.21a3.38,3.38,0,0,0-1.4,1.52v.2h.12l.55-.32h.41l-2.25,1.61a5.94,5.94,0,0,0-1.53,2.49c0,.16.3.37.88.65h.53A14,14,0,0,0,117,35a11.19,11.19,0,0,0,3.57-4.1,11,11,0,0,0,1.06-3.66v-.77c-.51-.8-1.63-1.4-3.34-1.81a4.69,4.69,0,0,1-1.62-.24l-1.84.24v-.24c.1,0,.5-.07,1.2-.2h1.85l.52.09.12-.21-.23-.12a12,12,0,0,1-1.5.12l-1.64-.53H115a1,1,0,0,0-.44.09.91.91,0,0,0-.41-.09l-.56.09c-.39-.49-.67-.73-.85-.73s-.44-.23-.44-.32a2.21,2.21,0,0,1,.44-.68,1.14,1.14,0,0,0-.56-.85A7.73,7.73,0,0,1,115.08,20.6Z"/><path class="cls-1" d="M138.58,0a.62.62,0,0,1,.09.32l.15-.09V.32a1.43,1.43,0,0,0-.15.59h.06l.41-.27.09.18A26,26,0,0,0,138.08,4H138l.08.15-.82,1.9h.24c.06-.39.17-.58.35-.58,0,.08.08.16.23.26a.66.66,0,0,0,.09-.26h.09a.16.16,0,0,1,.15.17c-.24.43-.41.65-.5.65v.09a.59.59,0,0,1,.17.32h.09c.08,0,.19-.17.32-.5V5.8c.08,0,.19-.14.33-.41l-.09-.15.67-1.64c0-.09-.11-.2-.32-.32s-.22.11-.35.32c.08,0,.21.14.41.41-.37.51-.62.86-.73,1.06h-.15V4.92h-.18c0,.31-.06.47-.17.47a.13.13,0,0,1-.15-.15,4.48,4.48,0,0,0,.5-1.23c.49-1.25.73-1.9.73-2l.24-.17h.08a2.28,2.28,0,0,0-.08.58c.17,0,.26.11.26.32l-.18.09.09.47h.15a1.71,1.71,0,0,1,.58-1,.08.08,0,0,0,.09.09.8.8,0,0,1-.41.47.08.08,0,0,0,.09.09,17.46,17.46,0,0,1-.59,2.22l.18.09a2.52,2.52,0,0,1,.64-1.4s0,.08.09.08A2.76,2.76,0,0,1,140,5.16h.26s0,.08-.09.08l.09.41q-1.23,3.55-2.55,7.8c.43,0,.65,0,.65.06l.17-.06a25.06,25.06,0,0,0,3.11-.18.66.66,0,0,0,.26.09,5.94,5.94,0,0,1,2-.26.53.53,0,0,0,.23.08.65.65,0,0,1,.35-.08c0,.11.05.17.15.17s.08-.17.17-.17h.74l.41-.06s0,.06.08.06.49-.19,1.47-.33v.09l2-.32a.59.59,0,0,0,.32.09q0-.18.18-.18h.09a.62.62,0,0,1,.32.09.59.59,0,0,1,.32-.09l.18.09c0-.08.07-.17.23-.26a.62.62,0,0,0,.23.08.17.17,0,0,1,.18-.14h.23l0,.14h.23c0-.15.58-.32,1.73-.49A.69.69,0,0,0,154,12a1.39,1.39,0,0,0,.73-.32q0,.18.24.18a1,1,0,0,0,.58-.27.63.63,0,0,1,.33.09.61.61,0,0,1,.26-.09l.15.09a5.75,5.75,0,0,1,1.64-.56c0-.05.06-.08.17-.08s.07.14.15.14a3.63,3.63,0,0,0,1.08-.32.63.63,0,0,0,.33.09h.17v-.09a.52.52,0,0,1-.09-.23h.09a.66.66,0,0,1,.32.08L163,9.9h.09L163,9.76V9.67a.16.16,0,0,1,.15.17l.18-.08.17.08a36.46,36.46,0,0,1,3.66-1h.27V8.61h.32c.55-.09.82-.21.82-.35l.24.18a7.58,7.58,0,0,1,1.31-.5V7.85l.41.09a9,9,0,0,1,2.14-.56q0-.09.18-.09l.14.09.83-.35H174l.24.18h.08L174.24,7a3.31,3.31,0,0,0,.82-.41h.23c0-.08.09-.16.26-.23,0,.07.08.15.24.23,0-.1.09-.15.26-.15l.41.09c0-.11,0-.17.15-.17a.6.6,0,0,0,.26.08l.41-.32h.06l-.06.15v.09h.06a8.66,8.66,0,0,0,1.82-.74l.41.09c0-.12.08-.17.17-.17l.15.08H180V5.57h-.18V5.39l.59.09h.09l-.09-.15V5.24l.73-.26v.09l-.09.17h.41a6.75,6.75,0,0,1,2.05-.58A9.79,9.79,0,0,1,185.63,4c0-.11.08-.17.18-.17l.14.09c.28-.12,1.32-.39,3.14-.82q0-.09.06-.09h.67l.41.09V2.78a6.09,6.09,0,0,0,1-.26h.32v.09l-.06.17h.06a6.23,6.23,0,0,1,1.32-.32v.06a10,10,0,0,1-3,.91L183.9,5.07v.17H184A5.17,5.17,0,0,1,184.9,5v.09l.32-.15a.69.69,0,0,0,.24.06c.27-.14.41-.24.41-.32l.41.09a1.25,1.25,0,0,1,.58-.33l.41.09c0-.12.08-.17.18-.17l.14.08c0-.17.37-.31,1.09-.41h.15v.24h.26L189,3.84h.5l.47-.32h.09l.17.08c0-.11.07-.17.15-.17h.09a.63.63,0,0,0,.17.41l-.26.32a.08.08,0,0,1,.09.09h-.09q-.15,0-.15-.24c-.12,0-.17.07-.17.15a.61.61,0,0,0,.26.09c0,.19-.39.3-1.17.32a.52.52,0,0,0,.09-.23h-.09a1,1,0,0,1-.47.08c0,.1.08.15.23.15v.18l-.41.08-.08-.17c0-.06,0-.09.08-.09l-.08-.15V4.34h.26V4.25a.61.61,0,0,1-.26-.09.91.91,0,0,1-.56.18v.17a.86.86,0,0,1,.47.24h.09l-.15.23a1,1,0,0,1,.06.26,5.75,5.75,0,0,0-1.23.41c-.1,0-.15-.05-.15-.17.82-.25,1.23-.42,1.23-.5h-.32V4.83H188V4.66h-.08a1.54,1.54,0,0,1-1.15.58.73.73,0,0,1-.08-.26h-.06l-.27.18-.14-.09-.09.17h.23v.15c-1,.29-1.46.49-1.46.59H185l.55-.09V6c0,.09-.44.26-1.31.49q0,.09-.15.09c-.18,0-.26-.11-.26-.35h-.15c-.24.39-.46.59-.67.59V6.71a1.21,1.21,0,0,1-.56.17V6.71a5.18,5.18,0,0,1,.73-.15l-.09-.17a31.33,31.33,0,0,0-4.57,1.4,31.13,31.13,0,0,0,3.61-1c0,.06.24.22.73.49a5.45,5.45,0,0,1-1,.33V7.53l-.14.09h-.33c.08-.2.43-.31,1.06-.33,0-.11-.06-.17-.18-.17h-.41a4.62,4.62,0,0,1-1,.26h-.18c0,.18-.44.34-1.32.47,0,.12-.15.18-.47.18l.06.17A2.86,2.86,0,0,1,180.07,8h.14c0-.22.17-.32.5-.32h.41v.14H181a3.12,3.12,0,0,0-1,.35,5.74,5.74,0,0,0-2,.65c-.55,0-.82.08-.82.23a.69.69,0,0,0-.24-.06l-.35.15a.13.13,0,0,0-.15-.15c0,.2-.3.34-.9.41l-.18-.08h-.06v.08h.15a.13.13,0,0,1-.15.15l-.41-.09c0,.08-.29.25-.82.5a.08.08,0,0,0-.09-.09.64.64,0,0,0-.08.27h-.09q0-.18-.09-.18l-.15.09-.17-.09c-.06,0-.2.14-.41.41a.13.13,0,0,0-.15-.15h-.26a4.32,4.32,0,0,1-1.47.47c-.06-.21-.16-.32-.32-.32a.71.71,0,0,1-.26.09v.09c.23,0,.35,0,.35.14-.33.14-.5.26-.5.35h.09l-.09.15v.09A40.31,40.31,0,0,0,175,9.9a.08.08,0,0,1,.09.09,2.6,2.6,0,0,1,.9-.32l.15.09a10,10,0,0,1,2.81-.91q9.62-2.79,11.14-3.11v.15l-9.5,2.72a4.66,4.66,0,0,0-1.31.47,34.58,34.58,0,0,0-4,1.09c-.17.09-1.22.4-3.13.9a3.5,3.5,0,0,0-.82.39.69.69,0,0,0-.24-.06.45.45,0,0,0-.09.23l-.41-.09h-.08v.09h.17v.18c-1.37.25-2.13.49-2.28.73a.69.69,0,0,0-.27-.09,10.14,10.14,0,0,1-2.78.91.08.08,0,0,1-.09.09.48.48,0,0,0-.23-.09l-.09.15-.41-.06a.78.78,0,0,0-.56.32.61.61,0,0,0-.26-.09l-.09.18-.15-.09h-.17c0,.16-.05.23-.15.23h-.17l-.41-.08c0,.11-.14.23-.41.35l-.5-.09c-.72.49-3.89,1.25-9.49,2.28-1.37.28-3.15.55-5.34.83V17.2a63.25,63.25,0,0,1-10,.76h-.14a35.79,35.79,0,0,0-1.64,5.8,151.06,151.06,0,0,1-6.33,17.37,2.86,2.86,0,0,1-1.06,1.41h-.17c-.55,0-.82-.06-.82-.18l-.15.09h-.09l-1.46-.56a.84.84,0,0,0-.26.06,1.5,1.5,0,0,1-1.15-.82,70.57,70.57,0,0,0,2.87-6.71l1.47-3.86a20,20,0,0,1,.91-2.52q1.14-3.43,2.37-8.29a5.65,5.65,0,0,0,.67-1.88c-2.63-.45-4.38-1-5.24-1.64-.27,0-1-.55-2.23-1.64v-.26h.18v-.15a3.38,3.38,0,0,1-.5-1.55.08.08,0,0,1-.09-.09l.09-.18a.57.57,0,0,1-.09-.32H124l-.09-.17v-.06c.06-.82.23-1.23.5-1.23l3.84,1.78,2.46.68.18-.09a19.7,19.7,0,0,0,2.05.41,26,26,0,0,0,.82-2.64,34.71,34.71,0,0,1,1.37-4.33c.08-.43.22-.65.41-.65,0-.06,0-.09-.05-.09a1.89,1.89,0,0,1,.64-1.4L136,4.1a2,2,0,0,1,.73-.41c0-.17,0-.26,0-.26a4.85,4.85,0,0,1,.23-1h.41A6.84,6.84,0,0,1,138.58,0Zm-3.37,6.56V7h.09l.09-.41Zm1.82.32v.24c.1,0,.14,0,.14-.15V6.88ZM137.17,9v.24h.27V9ZM138,7v.15a.61.61,0,0,1,.26-.09V6.8h-.09C138.05,6.82,138,6.88,138,7Zm.41-2.55a.65.65,0,0,1-.15.33v.08c.08,0,.18-.1.32-.32Zm.26-.67-.09.41c.08,0,.19-.11.32-.32l-.17-.09ZM139,6.21c.16,0,.29-.27.41-.82h-.09C139.16,5.39,139.05,5.66,139,6.21Zm.32-4.83h.18v.26h-.35V1.55C139.16,1.44,139.22,1.38,139.31,1.38Zm22.06,12.07v.06l.5.08c0-.07-.09-.15-.26-.23A.51.51,0,0,1,161.37,13.45Zm.65-.09a.16.16,0,0,0,.17.15c.39,0,.61-.08.65-.24l-.41-.09v.18h-.09v-.18h-.15C162.08,13.2,162,13.26,162,13.36ZM163.1,13l.06.15a.57.57,0,0,1-.23.08c0,.12.07.18.17.18a4.57,4.57,0,0,0,1.15-.59.84.84,0,0,1,.46.18l.09-.18c-.06,0-.09,0-.09-.08l.41.08.5-.14c0-.12-.05-.18-.14-.18h-.09l-.27.18c0-.12,0-.18-.05-.18a.69.69,0,0,1-.27.09v-.09A6.36,6.36,0,0,1,163.1,13Zm2-1V12h.32v-.17h-.09A.62.62,0,0,1,165.07,12Zm.82.27c0,.09-.06.14-.18.14s.08.18.18.18H166v-.09l-.09-.17q.09,0,.09-.06Zm.41-.18a.57.57,0,0,1-.09.32h.23v-.14l.18.06h.23v-.06c0-.12,0-.18-.14-.18Zm.64-.09V12q0,.18.18.18h0V12Zm1.64-1v.08h.09l1.05-.26a.69.69,0,0,0,.27.09V11c0,.09-.06.14-.18.14a.83.83,0,0,1-.32-.06l-.5.24-.17-.09c0,.08-.14.19-.41.32h-.15l-.18-.08c0,.11-.13.17-.41.17l.09.18-.18.06c0-.1,0-.15-.14-.15a.69.69,0,0,1-.27.09.55.55,0,0,1,.18.32h.18l-.09-.18v-.08l.41.08c.1,0,.15,0,.15-.14l.17.06h.18l-.09-.15.15-.09c0,.12.07.18.17.18h.18l-.09-.18.15-.09v.18a2.59,2.59,0,0,0,1.4-.59l-.09-.14.27-.41H170v.23h-.09v-.23Zm-1.41.47h.36c.09,0,.14-.05.14-.15h-.32Q167.17,11.34,167.17,11.46Zm2.55-1.21v.06h.33c.11,0,.17-.05.17-.14a.08.08,0,0,1-.09-.09A.77.77,0,0,1,169.72,10.25Zm1.15-.35V10h.35l-.09-.15A1,1,0,0,1,170.87,9.9Zm.17.41v.09a.57.57,0,0,0,.32-.09l.18.09h.09v-.09c-.18,0-.27-.08-.27-.23C171.15,10.16,171,10.23,171,10.31Zm.24-.47V10l.58-.09-.09-.14Zm.35.24v.17a1.15,1.15,0,0,1,.41.06c0-.15.15-.23.47-.23V9.9h-.06A3.39,3.39,0,0,1,171.63,10.08Zm.73-2.46v.09h.32V7.62Zm.23,2.37h.18a.13.13,0,0,0,.15-.15h-.15Q172.59,9.84,172.59,10Zm.59-.64h.15a.61.61,0,0,1,.26-.09V9.17h-.26A.17.17,0,0,0,173.18,9.35Zm.15.23v.09h.17a9.9,9.9,0,0,0,1.79-.5V9.08h-.23A6.36,6.36,0,0,1,173.33,9.58ZM174,8.12h.24l.23-.18a.66.66,0,0,0,.26.09l.09-.18c-.12,0-.17,0-.17-.06C174.22,7.91,174,8,174,8.12Zm.56.82h.26V8.76h-.09C174.62,8.78,174.56,8.84,174.56,8.94ZM175,7.71v.08h.17a1.43,1.43,0,0,0,.5-.17.51.51,0,0,0,.24.09l.08-.18h-.17A3.71,3.71,0,0,0,175,7.71Zm.5,1.23v.14l.82-.06V8.94a.51.51,0,0,1-.24-.09A2.16,2.16,0,0,1,175.47,8.94Zm.41-2.32v.09h.32V6.62Zm.49.67v.09h.24A4.47,4.47,0,0,1,177.69,7c0,.08.08.17.24.26H178a.68.68,0,0,1-.17-.26,1,1,0,0,1,.5-.15l.41.09-.09-.17,2.55-.74V5.89Zm2,.91c0-.06,0-.08-.08-.08s-.58.28-1.73.55v.18h.26a12.61,12.61,0,0,1,2-.65V8h-.17Zm-1.08,0h.09A.15.15,0,0,0,177.6,8h-.08C177.4,8.05,177.34,8.11,177.34,8.2Zm3.78-1.64a.17.17,0,0,0,.18.15h.08c0-.1,0-.15-.17-.15Zm.32-1.64h.09V5q0,.18-.15.18L181.3,5Zm0,.88V6h.09l.18-.09A.57.57,0,0,0,182,6h.09q0-.12-.33-.24s0,.06-.08.06V5.74A1,1,0,0,1,181.44,5.8Zm.68.35V6.3a.8.8,0,0,1,.41.09V6.21Zm0-.41,1-.26V5.39h-.09C182.48,5.47,182.17,5.59,182.17,5.74ZM182.94,7h.41v.18a1.8,1.8,0,0,1-.35.08l-.06-.17Zm.47-1.79a.73.73,0,0,1,.08.33h.09a.72.72,0,0,1,.24-.41h-.15A.87.87,0,0,1,183.41,5.24Zm.49,1.56V7l-.41.06C183.49,6.91,183.63,6.84,183.9,6.8Zm.41-.18h.27a.16.16,0,0,1-.18.18h-.09Zm.59-1h.15a.73.73,0,0,1,.26-.08V5.48h-.26A.16.16,0,0,0,184.9,5.65Zm.41-.49.09.17a.48.48,0,0,1,.23-.09V5.16Zm.32-.09a.51.51,0,0,1,.24.09H186V5.07c-.09,0-.14-.05-.14-.15S185.63,5,185.63,5.07Zm.18.32h.06c.11,0,.17,0,.17-.15H186C185.86,5.26,185.81,5.31,185.81,5.39Zm.64.18h.32c0,.11,0,.17-.14.17h-.18Zm.09.41h.32a.15.15,0,0,1-.17.17h-.15Zm.82-.24h.09c.1,0,.14,0,.14.15V6h-.23Zm1.47-.35.08.18-.23.17h-.59C188.09,5.64,188.34,5.53,188.83,5.39ZM189.32,4v.15a.16.16,0,0,1,.18.18h.23a.16.16,0,0,0,.18-.18q-.18,0-.18-.15H190V3.84A1,1,0,0,1,189.32,4Zm.09,1.15h.24v.17h-.24Zm.82-1.47-.09.15v.09a.63.63,0,0,1,.33-.09V3.75A.69.69,0,0,1,190.23,3.69Zm.24-.76V3h.08c.43-.06.65-.14.65-.24h-.09Zm.17.5h.41c0,.21,0,.32.15.32h.67v.09c0,.12-.25.2-.76.26V4l.09-.17a.53.53,0,0,1-.56-.32Zm.41.82h.15v.17h-.32C190.9,4.31,191,4.25,191.05,4.25Zm.82-1.14.15.41-.24.17h-.08c-.12,0-.18-.06-.18-.17h.35V3.43h-.35c0,.11-.05.17-.15.17a.15.15,0,0,1-.17-.17C191.2,3.33,191.42,3.22,191.87,3.11Zm1.23-.24-.17.24a.42.42,0,0,1,.08.23h-.08l-.24-.15h-.26l.09.15v.09h-.18c-.08,0-.16-.08-.23-.24A2.36,2.36,0,0,1,193.1,2.87Zm1-.67c0,.13-.32.24-1,.32L193,2.37A7.56,7.56,0,0,1,194.07,2.2Zm-.41.5v.17l-.15-.09c0,.1-.06.15-.17.15h-.09a.13.13,0,0,1-.15-.15Zm.26-.91V2a5.3,5.3,0,0,1-.67.15L193.16,2A1.94,1.94,0,0,1,193.92,1.79Zm.41.26h.24V2.2h-.41A.16.16,0,0,1,194.33,2.05Zm.88.24h.18c0,.13-.25.21-.73.23V2.37Z"/><path class="cls-1" d="M140.19,20.24h.21c0,.28,0,.41.12.41l-.12.5v1q0,.12-.09.12l.09.2-.09.5h.29a7.57,7.57,0,0,1,.41-1.73h.5a.19.19,0,0,1,.21-.18l.41.3.08-.41h.21v.7c.12,0,.25-.33.41-1h.29c0,.28.07.41.21.41v.8c0,.05,0,.08-.12.08a1.18,1.18,0,0,1,.12.62h.09v-.5h.2v.41a22.48,22.48,0,0,0-.41,3.9q-.21.68-1,6.82c-.05,0-.08.11-.08.33l.08.17q-.19.56-1.31,8.06c-.08,0-.35.26-.79.79-2-.14-3-.34-3-.62l-.71.12c-1.13-.16-1.69-.39-1.69-.7v-.5q.5,0,2.31-10.46a6.41,6.41,0,0,1,.41-2l-.12-.21c.14-.78.51-2.28,1.12-4.51,0-.33,0-.5.08-.5l-.08-.2c.17-.47.31-.7.41-.7a.07.07,0,0,0,.08.08,6.36,6.36,0,0,1,.59-1.81l.21.11h.11c0-.13,0-.2.09-.2h.29Z"/><path class="cls-1" d="M165.71,14.44h.09v.27l-.09.2a.19.19,0,0,1,.18.21l-.53.93v.12h.09c0-.19.17-.42.53-.67v.09A10.19,10.19,0,0,1,165.1,17v.12c.52-.33.79-.6.79-.79H166v.11a1.48,1.48,0,0,1-.71,1.06l-.17-.12-.12.21v.09h.29l-.09.2c.08,0,.17.1.27.29v.09L165,19v.12h.2v.09c0,.1-.09.19-.29.29,0-.14-.06-.2-.17-.2l-.18.58h.09l.35-.29h.12c0,.1-.13.22-.38.38l.08.2c0,.1-.23.33-.7.68.29,0,.44.12.44.29a3.27,3.27,0,0,1-1.17,1.44c-.24.31-.41.47-.53.47v.2H163v-.2c.11,0,.17.09.17.29h.09l1.08-1.44h.09a29.83,29.83,0,0,1-2.87,4.34h-.09v-.09l.38-.67h-.08l-1.09.94a2.22,2.22,0,0,1-.44.79l.18.08h.09l.79-.87.09.2a14.66,14.66,0,0,0-1.79,3.46A11.63,11.63,0,0,0,158.48,32a18.79,18.79,0,0,0-3,3.84,27.31,27.31,0,0,0-1.44,3c-1,2.09-1.58,3.21-1.7,3.37l-.61.58c-.08,0-.12,0-.12-.08l-.18.08a5.86,5.86,0,0,0-2-.67c0-.08-.23-.2-.7-.38l-.18.09c-1-.26-1.52-.8-1.52-1.64q-.56-2.55-1.44-8.76-.53-2-1.43-6.74h-.09c0-.76.33-1.14,1-1.14a5.79,5.79,0,0,1,3.48,1.61c.22,0,.45.19.7.58,0,.06,0,.09-.08.09q.25.76,1.7,7.53h-.09a3.32,3.32,0,0,1,.17.76h.09l6-9s1-1.45,2.84-4.22a30.93,30.93,0,0,1,2.34-3.28,8.41,8.41,0,0,1,1.79-2.4,3.16,3.16,0,0,0,.88-.21l.2.09C165.18,14.94,165.36,14.76,165.71,14.44Zm-1.79,7.21-.08.21v.08h.08a.71.71,0,0,1,.09-.29Zm.62-3.95v.2h.18a.88.88,0,0,1,.17-.5v-.09C164.81,17.31,164.7,17.44,164.54,17.7Z"/><path class="cls-1" d="M173,20.48a8.12,8.12,0,0,1,6.09,2.78,13.54,13.54,0,0,1,.82,3,.08.08,0,0,1-.09.09l.09.58v.71q0,1.55-2.55,3.86c-3.24,2-5.41,3-6.5,3a.94.94,0,0,0-.29-.09q0,.18-.21.18t-.12-.09l-.49.09h-.33c-.09,0-.19-.09-.29-.26l.09-.18c-.27-.33-.51-.5-.7-.5-1.35-1.21-2-2.17-2-2.87l.21-.09h1.52a18.78,18.78,0,0,0,6.59-3.19c1.16-1.15,1.73-1.88,1.73-2.2l-1.4-.26h-1.23q-2.73.24-7.12,3.31A8.57,8.57,0,0,0,164,33.05q1,2.46,8,4.89c1.43.45,3.26.93,5.51,1.44l.09.17q-.21,0-.21.15l.21.09c.13,0,.2-.08.2-.24h.5v.15H178v.17h.2c.75,0,1.12.15,1.12.44s.13.24.41.24v.26q0,.18-.21.18H179a14.63,14.63,0,0,1-2.55-.36v.18h.3V41h-.3a.81.81,0,0,0-.41-.18v-.18h.21v-.08H176l-.33.17h-.08c-.51,0-.78-.09-.82-.26h.49c0-.1-.06-.15-.2-.15h-.29c0,.1-.14.15-.41.15v.09a3,3,0,0,1,1.11.44l.32-.18h.09v.09l-.09.17h.09a1,1,0,0,1,.32-.08l2.11.67c.27,0,.41.05.41.15h-.2l-1.2-.06h-.12v.06l.61.08V42c0,.08-.16.2-.49.35a1,1,0,0,0-.41-.17l-.21.09a3.49,3.49,0,0,0-1-.36h-.08l.9.53a.37.37,0,0,0-.41.41h-.61a2.27,2.27,0,0,1-1.32-.35,38.78,38.78,0,0,1-7.32-2.69,15,15,0,0,1-3.58-3.2q-1.2-1.17-1.93-5.65l-.09-1a8.15,8.15,0,0,1,.7-2.87,7.68,7.68,0,0,1,2.26-2.43c0-.29.61-.74,1.82-1.35a10.69,10.69,0,0,0,2.14-1.52A11.24,11.24,0,0,1,173,20.48Zm5.27,9.2c-.16.49-1.2,1.33-3.13,2.52a29.63,29.63,0,0,1-3.26,1.52v.09h.3c3-.92,5.14-2.27,6.41-4l-.2-.09Zm-4.36,10.78h.32v-.15h-.12C174,40.31,173.92,40.36,173.92,40.46Zm.11,1.11v.18a1.27,1.27,0,0,1,.3.06l.08-.15A.85.85,0,0,1,174,41.57Zm.91.76a.88.88,0,0,1,.41.09l.09-.17-.21-.09h-.08C175,42.18,174.94,42.24,174.94,42.33Zm2.76-1.26H178v.15h-.29Zm1.4-12.59a4.62,4.62,0,0,1-.7,1.11h.09c.33,0,.6-.37.82-1.11Z"/></svg>