<svg 
 xmlns="http://www.w3.org/2000/svg"
 xmlns:xlink="http://www.w3.org/1999/xlink"
 width="150px" height="150px">
<path fill-rule="evenodd"  fill="rgb(19, 14, 39)"
 d="M75.0,150.0 C33.581,150.0 0.0,116.421 0.0,75.0 C0.0,33.579 33.581,0.0 75.0,0.0 C116.418,0.0 150.0,33.579 150.0,75.0 C150.0,116.421 116.418,150.0 75.0,150.0 ZM81.250,12.815 L81.250,18.750 C81.250,22.201 78.454,25.0 75.0,25.0 C71.545,25.0 68.749,22.201 68.749,18.750 L68.749,12.815 C39.227,15.746 15.747,39.224 12.817,68.750 L18.750,68.750 C22.204,68.750 25.0,71.545 25.0,75.0 C25.0,78.454 22.204,81.250 18.750,81.250 L12.817,81.250 C15.747,110.776 39.227,134.253 68.749,137.185 L68.749,131.250 C68.749,127.796 71.545,125.0 75.0,125.0 C78.454,125.0 81.250,127.796 81.250,131.250 L81.250,137.185 C110.772,134.253 134.253,110.776 137.182,81.250 L131.249,81.250 C127.795,81.250 125.0,78.454 125.0,75.0 C125.0,71.545 127.795,68.750 131.249,68.750 L137.182,68.750 C134.253,39.224 110.772,15.746 81.250,12.815 ZM61.743,88.257 L35.229,79.413 L105.938,44.55 L70.581,114.771 L61.743,88.257 ZM91.962,58.32 L51.514,78.259 L63.720,82.324 L66.686,83.313 L67.669,86.279 L71.740,98.479 L91.962,58.32 Z"/>
</svg>