<svg 
 xmlns="http://www.w3.org/2000/svg"
 xmlns:xlink="http://www.w3.org/1999/xlink"
 width="163px" height="143px">
<path fill-rule="evenodd"  fill="rgb(19, 14, 39)"
 d="M149.849,75.228 L81.947,142.24 L14.51,75.228 C-3.451,58.11 -3.451,30.105 14.51,12.888 C31.547,-4.321 59.920,-4.321 77.422,12.888 C79.106,14.551 80.586,16.338 81.947,18.178 C83.314,16.338 84.787,14.551 86.478,12.888 C103.980,-4.321 132.347,-4.321 149.849,12.888 C167.345,30.105 167.345,58.11 149.849,75.228 ZM140.795,21.795 C128.298,9.503 108.29,9.503 95.526,21.795 C92.541,24.732 81.947,35.153 81.947,35.153 C81.947,35.153 71.359,24.732 68.367,21.795 C55.872,9.503 35.608,9.503 23.99,21.795 C10.603,34.101 10.603,54.28 23.99,66.327 C26.329,69.497 81.947,124.215 81.947,124.215 C81.947,124.215 137.572,69.497 140.795,66.327 C153.291,54.28 153.291,34.101 140.795,21.795 ZM125.287,55.958 C127.737,53.553 129.250,50.226 129.250,46.550 C129.250,39.202 123.193,33.244 115.723,33.244 L115.723,26.591 C126.925,26.591 136.13,35.531 136.13,46.550 C136.13,52.60 133.741,57.49 130.69,60.661 L125.287,55.958 Z"/>
</svg>